<mxfile host="app.diagrams.net" modified="2024-05-24T21:07:30.096Z" agent="Mozilla/5.0 (Windows NT 10.0; Win64; x64) AppleWebKit/537.36 (KHTML, like Gecko) Chrome/125.0.0.0 Safari/537.36" etag="EAdKG7kvtetmgL305pFL" version="24.4.7" type="github">
  <diagram name="第 1 页" id="0qt4IzlYuPPbSQ8wgV9g">
    <mxGraphModel dx="1434" dy="756" grid="0" gridSize="10" guides="1" tooltips="1" connect="1" arrows="1" fold="1" page="1" pageScale="1" pageWidth="827" pageHeight="1169" math="0" shadow="0">
      <root>
        <mxCell id="0" />
        <mxCell id="1" parent="0" />
        <mxCell id="LAOuAQNDwB06aQGSl7v2-1" value="&lt;font style=&quot;font-size: 25px;&quot;&gt;用户&lt;/font&gt;" style="html=1;whiteSpace=wrap;" vertex="1" parent="1">
          <mxGeometry x="340" y="260" width="110" height="50" as="geometry" />
        </mxCell>
        <mxCell id="LAOuAQNDwB06aQGSl7v2-12" value="&lt;font style=&quot;font-size: 22px;&quot;&gt;账户&lt;/font&gt;" style="ellipse;whiteSpace=wrap;html=1;" vertex="1" parent="1">
          <mxGeometry x="335" y="140" width="120" height="60" as="geometry" />
        </mxCell>
        <mxCell id="LAOuAQNDwB06aQGSl7v2-13" value="&lt;font style=&quot;font-size: 22px;&quot;&gt;ID&lt;/font&gt;" style="ellipse;whiteSpace=wrap;html=1;" vertex="1" parent="1">
          <mxGeometry x="163" y="193" width="120" height="60" as="geometry" />
        </mxCell>
        <mxCell id="LAOuAQNDwB06aQGSl7v2-14" value="&lt;font style=&quot;font-size: 22px;&quot;&gt;密码&lt;/font&gt;" style="ellipse;whiteSpace=wrap;html=1;" vertex="1" parent="1">
          <mxGeometry x="499" y="193" width="120" height="60" as="geometry" />
        </mxCell>
      </root>
    </mxGraphModel>
  </diagram>
</mxfile>
